<?xml version="1.0" encoding="UTF-8" standalone="no"?>
<svg
   xmlns:dc="http://purl.org/dc/elements/1.1/"
   xmlns:cc="http://creativecommons.org/ns#"
   xmlns:rdf="http://www.w3.org/1999/02/22-rdf-syntax-ns#"
   xmlns:svg="http://www.w3.org/2000/svg"
   xmlns="http://www.w3.org/2000/svg"
   style="overflow:visible"
   xml:space="preserve"
   enable-background="new 0 0 581 254"
   overflow="visible"
   viewBox="0 0 55.589966 149.03976"
   height="149.03976"
   width="55.589966"
   id="Layer_1"
   version="1.1"><metadata
     id="metadata788"><rdf:RDF><cc:Work
         rdf:about=""><dc:format>image/svg+xml</dc:format><dc:type
           rdf:resource="http://purl.org/dc/dcmitype/StillImage" /><dc:title></dc:title></cc:Work></rdf:RDF></metadata><defs
     id="defs786" /><linearGradient
     gradientTransform="matrix(0.36488,-0.93106,0.93106,0.36488,144.93985,584.73346)"
     y2="196.94533"
     x2="518.00958"
     y1="209.71777"
     x1="494.42969"
     gradientUnits="userSpaceOnUse"
     id="XMLID_6_"><stop
       id="stop2"
       style="stop-color:#B2B2B2"
       offset="0" /><stop
       id="stop4"
       style="stop-color:#FFFFFF"
       offset="1" /></linearGradient><linearGradient
     gradientTransform="matrix(0.94055,-0.33964,0.33964,0.94055,-17.08613,103.6792)"
     y2="95.128822"
     x2="296.74078"
     y1="107.90088"
     x1="273.16162"
     gradientUnits="userSpaceOnUse"
     id="XMLID_7_"><stop
       id="stop9"
       style="stop-color:#B2B2B2"
       offset="0" /><stop
       id="stop11"
       style="stop-color:#FFFFFF"
       offset="1" /></linearGradient><linearGradient
     gradientTransform="matrix(-0.08186,-0.99664,0.99664,-0.08186,-200.16946,278.5785)"
     y2="232.60432"
     x2="138.12517"
     y1="245.37695"
     x1="114.54492"
     gradientUnits="userSpaceOnUse"
     id="XMLID_8_"><stop
       id="stop16"
       style="stop-color:#B2B2B2"
       offset="0" /><stop
       id="stop18"
       style="stop-color:#FFFFFF"
       offset="1" /></linearGradient><path
     style="fill:url(#XMLID_8_)"
     id="path21"
     d="m 30.405764,139.34284 -3.43164,2.5293 10.13574,1.05273 -5.58887,-8.99609 0.31152,4.53418 c 0,0 -15.44629,-9.76855 -7.98828,-21.09766 l -7.78516,0.63867 c 1.44728,17.62208 14.34669,21.33887 14.34669,21.33887 z" /><linearGradient
     gradientTransform="matrix(-0.86022,-0.50991,-0.50991,0.86022,197.85932,50.803659)"
     y2="58.836349"
     x2="185.68611"
     y1="71.608398"
     x1="162.10693"
     gradientUnits="userSpaceOnUse"
     id="XMLID_9_"><stop
       id="stop23"
       style="stop-color:#B2B2B2"
       offset="0" /><stop
       id="stop25"
       style="stop-color:#FFFFFF"
       offset="1" /></linearGradient><path
     style="fill:url(#XMLID_9_)"
     id="path28"
     d="m 19.467784,23.454169 3.77539,-1.97754 -3.49072,9.57275 -5.6416,-8.96289 3.94092,2.26563 c 0,0 -2.02051,-18.1640595 -15.47168,-16.4184595 l 3.98291,-6.71924 c 15.20946,9.0156295 12.90478,22.2397495 12.90478,22.2397495 z" /><linearGradient
     gradientTransform="translate(-132.79785,-65.434501)"
     y2="81.38752"
     x2="179.99927"
     y1="94.159668"
     x1="156.41992"
     gradientUnits="userSpaceOnUse"
     id="XMLID_10_"><stop
       id="stop30"
       style="stop-color:#B2B2B2"
       offset="0" /><stop
       id="stop32"
       style="stop-color:#FFFFFF"
       offset="1" /></linearGradient><path
     style="fill:url(#XMLID_10_)"
     id="path35"
     d="m 28.941904,24.555249 -2.23975,-3.62598 -1.87842,10.01465 9.42334,-4.8335 -4.54492,-0.06054 c 0,0 11,-14.59473 21.68115,-6.23438 v -7.81104 c -17.68115,0 -22.4414,12.55079 -22.4414,12.55079 z" /><polygon
     style="fill:#00ff00;stroke:#000000"
     transform="translate(-132.79785,-65.434501)"
     id="polygon47"
     points="137.28467,67.59912 142.10059,66 145.89355,69.37158 144.87012,74.3418 140.0542,75.94092 136.26123,72.56934 " /><polygon
     style="fill:#00ff00;stroke:#000000"
     transform="translate(-138.52419,-63.525721)"
     id="polygon49"
     points="186.79736,202.05859 190.58984,205.43066 189.56689,210.40137 184.75,212 180.95752,208.62793 181.98047,203.6582 " /><polygon
     style="fill:#00ff00;stroke:#000000"
     transform="translate(-132.79785,-65.434501)"
     id="polygon61"
     points="179.23047,79.65723 184.04688,78.05908 187.83984,81.43066 186.81592,86.40039 182,88 178.20752,84.62842 " /><g
     transform="translate(-132.79785,-65.434501)"
     id="g549"><path
       style="fill:#51ce7b;stroke:#000000"
       id="path541"
       d="m 172.60596,168.46289 c 0,6.62695 -5.37305,12 -12,12 h -15.30811 c -6.62744,0 -12,-5.37305 -12,-12 v -58.0249 c 0,-6.62695 5.37256,-12 12,-12 h 15.30811 c 6.62695,0 12,5.37305 12,12 z" /><polygon
       style="fill:#31af58"
       id="polygon543"
       points="147.93896,172.5 147.93896,104.56348 143,101.25 163.25,101.25 157.625,104.56348 157.625,172.5 163.25,176.75 142.875,176.75 " /><path
       style="fill:#51ce7b;stroke:#000000"
       id="path545"
       d="m 142.625,101.25 c 0,0 5.625,1 5.625,5.625 0,4.625 0,65.625 0,65.625 0,0 -1.625,4.25 -5.625,4.25" /><path
       style="fill:#51ce7b;stroke:#000000"
       id="path547"
       d="m 163,101.25 c 0,0 -5.625,1 -5.625,5.625 0,4.625 0,65.625 0,65.625 0,0 1.625,4.25 5.625,4.25" /></g><polygon
     style="fill:#00ff00;stroke:#000000"
     transform="translate(-132.79785,-65.434501)"
     id="polygon603"
     points="148.89844,127.03027 153.71436,125.43018 157.50732,128.80176 156.48389,133.77295 151.66846,135.37158 147.875,132 " /><polygon
     style="fill:#00ff00;stroke:#000000"
     transform="translate(-132.79785,-65.434501)"
     id="polygon605"
     points="148.65723,177.25586 153.47314,175.65625 157.2666,179.02734 156.24268,183.99805 151.42676,185.59668 147.63379,182.22559 " /><rect
     style="fill:none"
     y="-11.51145"
     x="-12.54467"
     id="rect613"
     height="254"
     width="581" /></svg>